<mxfile host="app.diagrams.net" modified="2023-10-01T07:48:24.795Z" agent="Mozilla/5.0 (Windows NT 10.0; Win64; x64) AppleWebKit/537.36 (KHTML, like Gecko) Chrome/117.0.0.0 Safari/537.36" etag="D0E1uFKUoabftHdua9hj" version="22.0.0" type="device">
  <diagram name="PÃ¡gina-1" id="EaAr9JaD_1GtD3zqbKn-">
    <mxGraphModel dx="1877" dy="530" grid="1" gridSize="10" guides="1" tooltips="1" connect="1" arrows="1" fold="1" page="1" pageScale="1" pageWidth="827" pageHeight="1169" math="0" shadow="0">
      <root>
        <mxCell id="0" />
        <mxCell id="1" parent="0" />
        <mxCell id="V-2HRD_DvyA_g5PuHUL7-6" style="edgeStyle=orthogonalEdgeStyle;rounded=0;orthogonalLoop=1;jettySize=auto;html=1;entryX=0.5;entryY=0;entryDx=0;entryDy=0;" edge="1" parent="1" source="V-2HRD_DvyA_g5PuHUL7-1" target="V-2HRD_DvyA_g5PuHUL7-2">
          <mxGeometry relative="1" as="geometry" />
        </mxCell>
        <mxCell id="V-2HRD_DvyA_g5PuHUL7-7" value="1:N" style="edgeLabel;html=1;align=center;verticalAlign=middle;resizable=0;points=[];" vertex="1" connectable="0" parent="V-2HRD_DvyA_g5PuHUL7-6">
          <mxGeometry x="-0.1385" relative="1" as="geometry">
            <mxPoint as="offset" />
          </mxGeometry>
        </mxCell>
        <mxCell id="V-2HRD_DvyA_g5PuHUL7-19" style="edgeStyle=orthogonalEdgeStyle;rounded=0;orthogonalLoop=1;jettySize=auto;html=1;entryX=0.5;entryY=0;entryDx=0;entryDy=0;" edge="1" parent="1" source="V-2HRD_DvyA_g5PuHUL7-1" target="V-2HRD_DvyA_g5PuHUL7-18">
          <mxGeometry relative="1" as="geometry" />
        </mxCell>
        <mxCell id="V-2HRD_DvyA_g5PuHUL7-21" value="1:1" style="edgeLabel;html=1;align=center;verticalAlign=middle;resizable=0;points=[];" vertex="1" connectable="0" parent="V-2HRD_DvyA_g5PuHUL7-19">
          <mxGeometry x="0.5061" relative="1" as="geometry">
            <mxPoint as="offset" />
          </mxGeometry>
        </mxCell>
        <mxCell id="V-2HRD_DvyA_g5PuHUL7-1" value="STORE" style="whiteSpace=wrap;html=1;aspect=fixed;" vertex="1" parent="1">
          <mxGeometry x="-440" y="40" width="80" height="80" as="geometry" />
        </mxCell>
        <mxCell id="V-2HRD_DvyA_g5PuHUL7-8" style="edgeStyle=orthogonalEdgeStyle;rounded=0;orthogonalLoop=1;jettySize=auto;html=1;" edge="1" parent="1" source="V-2HRD_DvyA_g5PuHUL7-2" target="V-2HRD_DvyA_g5PuHUL7-3">
          <mxGeometry relative="1" as="geometry" />
        </mxCell>
        <mxCell id="V-2HRD_DvyA_g5PuHUL7-9" value="1:n" style="edgeLabel;html=1;align=center;verticalAlign=middle;resizable=0;points=[];" vertex="1" connectable="0" parent="V-2HRD_DvyA_g5PuHUL7-8">
          <mxGeometry x="-0.1385" y="-2" relative="1" as="geometry">
            <mxPoint as="offset" />
          </mxGeometry>
        </mxCell>
        <mxCell id="V-2HRD_DvyA_g5PuHUL7-10" value="1:N" style="edgeLabel;html=1;align=center;verticalAlign=middle;resizable=0;points=[];" vertex="1" connectable="0" parent="V-2HRD_DvyA_g5PuHUL7-8">
          <mxGeometry x="-0.1577" y="-2" relative="1" as="geometry">
            <mxPoint as="offset" />
          </mxGeometry>
        </mxCell>
        <mxCell id="V-2HRD_DvyA_g5PuHUL7-2" value="USER" style="whiteSpace=wrap;html=1;aspect=fixed;" vertex="1" parent="1">
          <mxGeometry x="-440" y="200" width="80" height="80" as="geometry" />
        </mxCell>
        <mxCell id="V-2HRD_DvyA_g5PuHUL7-11" style="edgeStyle=orthogonalEdgeStyle;rounded=0;orthogonalLoop=1;jettySize=auto;html=1;" edge="1" parent="1" source="V-2HRD_DvyA_g5PuHUL7-3" target="V-2HRD_DvyA_g5PuHUL7-4">
          <mxGeometry relative="1" as="geometry" />
        </mxCell>
        <mxCell id="V-2HRD_DvyA_g5PuHUL7-12" value="1:1" style="edgeLabel;html=1;align=center;verticalAlign=middle;resizable=0;points=[];" vertex="1" connectable="0" parent="V-2HRD_DvyA_g5PuHUL7-11">
          <mxGeometry x="-0.075" relative="1" as="geometry">
            <mxPoint as="offset" />
          </mxGeometry>
        </mxCell>
        <mxCell id="V-2HRD_DvyA_g5PuHUL7-13" style="edgeStyle=orthogonalEdgeStyle;rounded=0;orthogonalLoop=1;jettySize=auto;html=1;entryX=1;entryY=0.5;entryDx=0;entryDy=0;" edge="1" parent="1" source="V-2HRD_DvyA_g5PuHUL7-3" target="V-2HRD_DvyA_g5PuHUL7-5">
          <mxGeometry relative="1" as="geometry">
            <Array as="points">
              <mxPoint x="-460" y="400" />
              <mxPoint x="-460" y="560" />
            </Array>
          </mxGeometry>
        </mxCell>
        <mxCell id="V-2HRD_DvyA_g5PuHUL7-14" value="1:1" style="edgeLabel;html=1;align=center;verticalAlign=middle;resizable=0;points=[];" vertex="1" connectable="0" parent="V-2HRD_DvyA_g5PuHUL7-13">
          <mxGeometry x="-0.0718" y="1" relative="1" as="geometry">
            <mxPoint as="offset" />
          </mxGeometry>
        </mxCell>
        <mxCell id="V-2HRD_DvyA_g5PuHUL7-20" style="edgeStyle=orthogonalEdgeStyle;rounded=0;orthogonalLoop=1;jettySize=auto;html=1;entryX=0.5;entryY=1;entryDx=0;entryDy=0;" edge="1" parent="1" source="V-2HRD_DvyA_g5PuHUL7-3" target="V-2HRD_DvyA_g5PuHUL7-18">
          <mxGeometry relative="1" as="geometry" />
        </mxCell>
        <mxCell id="V-2HRD_DvyA_g5PuHUL7-22" value="1:1" style="edgeLabel;html=1;align=center;verticalAlign=middle;resizable=0;points=[];" vertex="1" connectable="0" parent="V-2HRD_DvyA_g5PuHUL7-20">
          <mxGeometry x="0.4688" y="1" relative="1" as="geometry">
            <mxPoint as="offset" />
          </mxGeometry>
        </mxCell>
        <mxCell id="V-2HRD_DvyA_g5PuHUL7-3" value="CUSTOMER" style="whiteSpace=wrap;html=1;aspect=fixed;" vertex="1" parent="1">
          <mxGeometry x="-440" y="360" width="80" height="80" as="geometry" />
        </mxCell>
        <mxCell id="V-2HRD_DvyA_g5PuHUL7-16" style="edgeStyle=orthogonalEdgeStyle;rounded=0;orthogonalLoop=1;jettySize=auto;html=1;entryX=1;entryY=0.5;entryDx=0;entryDy=0;" edge="1" parent="1" source="V-2HRD_DvyA_g5PuHUL7-4" target="V-2HRD_DvyA_g5PuHUL7-15">
          <mxGeometry relative="1" as="geometry" />
        </mxCell>
        <mxCell id="V-2HRD_DvyA_g5PuHUL7-17" value="1:1" style="edgeLabel;html=1;align=center;verticalAlign=middle;resizable=0;points=[];" vertex="1" connectable="0" parent="V-2HRD_DvyA_g5PuHUL7-16">
          <mxGeometry x="0.0019" y="-2" relative="1" as="geometry">
            <mxPoint as="offset" />
          </mxGeometry>
        </mxCell>
        <mxCell id="V-2HRD_DvyA_g5PuHUL7-4" value="CREDIT&lt;br&gt;_CARD" style="whiteSpace=wrap;html=1;aspect=fixed;" vertex="1" parent="1">
          <mxGeometry x="-600" y="360" width="80" height="80" as="geometry" />
        </mxCell>
        <mxCell id="V-2HRD_DvyA_g5PuHUL7-5" value="FORM&lt;br&gt;_PAYMENT" style="whiteSpace=wrap;html=1;aspect=fixed;" vertex="1" parent="1">
          <mxGeometry x="-600" y="520" width="80" height="80" as="geometry" />
        </mxCell>
        <mxCell id="V-2HRD_DvyA_g5PuHUL7-15" value="FLAG&lt;br&gt;_CARD" style="whiteSpace=wrap;html=1;aspect=fixed;" vertex="1" parent="1">
          <mxGeometry x="-760" y="360" width="80" height="80" as="geometry" />
        </mxCell>
        <mxCell id="V-2HRD_DvyA_g5PuHUL7-18" value="PAYMENT" style="whiteSpace=wrap;html=1;aspect=fixed;" vertex="1" parent="1">
          <mxGeometry x="-280" y="200" width="80" height="80" as="geometry" />
        </mxCell>
      </root>
    </mxGraphModel>
  </diagram>
</mxfile>
